<?xml version="1.0" encoding="utf-8"?>
<!-- Generator: Adobe Illustrator 23.0.0, SVG Export Plug-In . SVG Version: 6.00 Build 0)  -->
<svg version="1.1" id="Layer_1" xmlns="http://www.w3.org/2000/svg" xmlns:xlink="http://www.w3.org/1999/xlink" x="0px" y="0px"
	 width="963.6px" height="344.5px" viewBox="0 0 963.6 344.5" style="enable-background:new 0 0 963.6 344.5;" xml:space="preserve"
	>
<style type="text/css">
	.st0{fill-rule:evenodd;clip-rule:evenodd;fill:#00263D;}
	.st1{fill-rule:evenodd;clip-rule:evenodd;fill:#76BE43;}
	.st2{fill-rule:evenodd;clip-rule:evenodd;fill:#FFFFFF;}
	.st3{fill:#04B084;}
	.st4{fill:#17BC8D;}
	.st5{fill:#00263D;}
</style>
<g>
	<g>
		<g>
			<path class="st0" d="M386.5,75.7c0.2,29.7-11.8,68.6-34.6,107.5c-0.7,1.1-1.3,2.3-2,3.4l-11.4-0.1l0,0l-6.9-0.1
				c-2.3,0.1-4.5,0.2-6.7,0.5c-1,0.1-2,0.3-3,0.4c-9.4,1.7-17.8,6.4-24.8,12.9c-8.2,7.6-14.1,17.2-20.3,26.5
				c-3.3,4.8-6.8,9.4-10.5,13.8c-0.6,0.6-1.1,1.1-1.6,1.8c-0.1,0.2-0.3,0.3-0.4,0.5H161.7c2.2-5.8,3.4-12.1,3.4-18.8
				c0-18.4-9.2-34.5-23.2-44.3c-3.6-2.5-7.4-4.5-11.4-6.1c-6-2.4-12.6-3.7-19.4-3.7c-29.8,0-54.1,24.2-54.1,54.1
				c0,6.6,1.2,12.9,3.4,18.8H14.5c-12.3,0-9.5-4.6,0.2-16.9c0.8-10.6,0.5-20.2,1.4-28.8c0.7-7.1,2.2-13.4,5.6-19l0,0
				c0.5-0.9,1.1-1.7,1.7-2.5c1.4-1.9,3.2-3.6,5.1-5.2c2.5-2,5.4-3.8,9-5.6c17.4-8.4,38.9-15.2,64.3-20.5c20.2-4.1,34.2-6.5,46.4-9.1
				c5.9-1.3,11.4-2.6,17-4.2c12-3.6,24.3-8.5,41.8-17.4c0.6-0.3,1.3-0.6,1.9-1c3.6-1.8,7.3-3.8,11.4-5.9c2.1-1.1,4-2.1,9.3-4.7
				c0.4-0.2,0.8-0.4,1.3-0.6l2.1-1c40-19.6,66-25,99.9-26.3c11.2-0.4,37.7-0.5,53.8-0.4C386.5,74.3,386.5,75,386.5,75.7z"/>
			<path class="st1" d="M410.4,158.9c-1.4,3.5-3,7-4.8,10.3c-2.4,4.1-5.4,7.9-9.3,10.9c-4,3.1-8.9,5.2-13.8,6.2
				c-5.1,1-10.4,0.4-15.6,0.4h-17.1c0.7-1.1,1.4-2.3,2-3.4c22.8-38.9,34.8-77.8,34.6-107.5c0-0.7,0-1.5,0-2.2
				c-0.5-19.8-6.7-35.3-18.9-43.6c-28.5-19.2-80.8,6.7-125.6,59l0,0l-9.1,11.2l-2.1,1c-0.4,0.2-0.8,0.4-1.3,0.6
				c-5.3,2.7-7.3,3.8-9.3,4.7c-4,2.2-7.8,4-11.4,5.9c-0.7,0.3-1.3,0.6-1.9,1l9.1-12.1l0,0c57.8-79.3,137.4-118.9,181.8-89
				c18.9,12.7,28.5,36.2,29.3,65.4C427.7,105.6,420.5,133.1,410.4,158.9z"/>
			<path class="st0" d="M157.3,223.9c0,6.7-1.4,13-3.9,18.8c-4.6,10.5-13,18.9-23.5,23.6l0,0c-0.3,0.1-0.6,0.3-1,0.4
				c-0.3,0.1-0.6,0.3-1,0.4c-0.1,0-0.2,0.1-0.2,0.1c-0.1,0-0.2,0.1-0.2,0.1c-0.2,0.1-0.3,0.1-0.5,0.2c-0.2,0.1-0.5,0.2-0.7,0.2
				c-0.2,0.1-0.4,0.2-0.7,0.2h-0.1c-0.2,0.1-0.3,0.1-0.5,0.2c-0.3,0.1-0.6,0.2-0.9,0.3c-0.2,0.1-0.4,0.1-0.6,0.2c0,0,0,0-0.1,0
				c-0.1,0-0.3,0.1-0.4,0.1c-0.1,0-0.2,0.1-0.3,0.1c-0.2,0-0.3,0.1-0.5,0.1c-0.2,0-0.3,0.1-0.5,0.1c-0.2,0-0.3,0.1-0.5,0.1
				c-0.3,0.1-0.5,0.1-0.8,0.2c-0.3,0.1-0.7,0.1-1,0.2c-0.2,0-0.5,0.1-0.7,0.1c-0.1,0-0.2,0-0.4,0.1c-0.2,0-0.3,0-0.5,0.1
				c-0.2,0-0.4,0.1-0.6,0.1c-0.1,0-0.2,0-0.3,0c-0.2,0-0.3,0-0.5,0.1c-0.2,0-0.5,0.1-0.7,0.1l0,0c0,0,0,0-0.1,0c-0.2,0-0.3,0-0.5,0
				c-0.2,0-0.4,0-0.5,0c-0.2,0-0.4,0-0.6,0h-0.1c-0.1,0-0.2,0-0.3,0c-0.9,0.1-1.8,0.1-2.7,0.1c-18.9,0-35.1-11.4-42.3-27.6
				c-2.6-5.7-3.9-12-3.9-18.8c0-25.6,20.7-46.3,46.3-46.3c5.9,0,11.5,1.1,16.8,3.2c4.1,1.6,8,3.8,11.4,6.4
				C150.2,195.7,157.3,209,157.3,223.9z"/>
			<path class="st2" d="M129.5,223.9c0,2.7-0.6,5.1-1.6,7.4c-1.9,4.1-5.1,7.5-9.3,9.4c-2,0.9-4.1,1.5-6.4,1.6c-0.4,0-0.7,0-1.1,0
				c-7.5,0-14-4.5-16.9-11c-1-2.3-1.6-4.8-1.6-7.4c0-10.2,8.2-18.4,18.4-18.4c2.4,0,4.6,0.4,6.7,1.3c1.7,0.6,3.2,1.5,4.5,2.6
				C126.6,212.7,129.5,218,129.5,223.9z"/>
		</g>
		<path class="st3" d="M121.4,269.1c0.2,0,0.3-0.1,0.5-0.1s0.3-0.1,0.5-0.1C122,268.9,121.7,269,121.4,269.1z M122.7,268.7
			c0.1,0,0.2-0.1,0.3-0.1c0.2,0,0.3-0.1,0.4-0.1C123.2,268.6,123,268.6,122.7,268.7z"/>
		<path class="st4" d="M349.7,186.6c-0.3,0.8-0.7,1.6-1.1,2.4c-2.7,5.7-5.3,11.4-8.3,16.9c-6,11.6-12.7,22.9-20.1,33.9
			c-7.9,11.6-16.5,22.9-25.8,33.6c-8,9.2-16.6,17.9-25.7,26c-8.4,7.4-17.2,14.2-26.5,20.3c-8.4,5.4-17.2,10.3-26.4,14.1
			c-8.2,3.5-16.7,6.1-25.5,7.5c-7.8,1.3-15.8,1.5-23.6,0.3c-7.3-1.2-14.3-3.7-20.7-7.4c-19.5-11.7-30.4-34.6-32.7-63.8
			c0.1,0,0.2,0,0.3,0h0.1l0,0h0.1c0.2,0,0.3,0,0.5,0c0.2,0,0.4,0,0.5,0c0.2,0,0.4,0,0.5,0c0,0,0,0,0.1,0l0,0c0.2,0,0.5-0.1,0.7-0.1
			c0.2,0,0.4,0,0.5-0.1c0.1,0,0.2,0,0.3,0c0.2,0,0.4-0.1,0.6-0.1c0.2,0,0.3,0,0.5-0.1c0.1,0,0.2,0,0.4-0.1c0.2,0,0.5-0.1,0.7-0.1
			c0.3-0.1,0.7-0.1,1-0.2c0.3-0.1,0.5-0.1,0.8-0.2c0.3-0.1,0.6-0.1,0.9-0.2c0.2,0,0.3-0.1,0.5-0.1c0.3-0.1,0.5-0.1,0.8-0.2
			c0,0,0,0,0.1,0c0.2-0.1,0.4-0.1,0.6-0.2c0.3-0.1,0.6-0.2,0.9-0.3c0.2-0.1,0.3-0.1,0.5-0.2h0.1c0.2-0.1,0.4-0.1,0.7-0.2
			c0.1,0,0.1,0,0.2-0.1c0.2-0.1,0.3-0.1,0.5-0.2c0.2-0.1,0.3-0.1,0.5-0.2c0.1,0,0.2-0.1,0.2-0.1c0.1,0,0.2-0.1,0.2-0.1
			c0.2-0.1,0.3-0.1,0.5-0.2c0.2-0.1,0.3-0.1,0.5-0.2c0.2-0.1,0.3-0.1,0.5-0.2c0.2-0.1,0.3-0.1,0.5-0.2l0,0
			c2.9,14.8,9.5,26.2,19.9,32.4c0.2,0.1,0.3,0.2,0.5,0.3c6.6,3.8,14.4,5.2,22,4.8c9.1-0.5,17.9-3.3,26.2-6.9
			c10.2-4.5,19.5-10.7,28.4-17.5c10.4-8,19.9-17.1,28.8-26.7c3.8-4,7.3-8.1,10.8-12.1c3.7-4.4,7.2-9,10.5-13.8
			c6.2-9.2,12.1-18.8,20.3-26.5c7-6.5,15.3-11.3,24.8-12.9c1-0.2,2-0.3,3-0.4c2.3-0.3,4.4-0.4,6.7-0.5l6.9,0.1l0,0L349.7,186.6z"/>
	</g>
	<g>
		<g>
			<path class="st5" d="M466.1,145.8h57.1l6.1,26.4h21L522.1,58.4h-21l-74,113.8h22.6L466.1,145.8z M507.9,79.1l11.5,50.1h-42.9
				L507.9,79.1z"/>
			<path class="st5" d="M572.4,170.1c5.1,3.1,11.4,4.6,18.7,4.6c7.1,0,13.8-1.5,20-4.3c3.5-1.6,6.5-3.7,9.3-6.2l-1.9,9.5h19.3
				l17.3-86.9H635l-9.1,45c-1.6,8.5-4.9,14.7-9.9,18.9c-4.9,4.1-11.1,6.2-18.3,6.2c-7,0-11.9-2-14.5-5.9c-2.7-3.9-3.4-9.5-2.1-16.5
				l9.6-47.7h-20.3l-9.6,48.2c-1.8,8.6-1.5,15.8,0.7,21.7C563.5,162.5,567.2,167,572.4,170.1z"/>
			<path class="st5" d="M705.7,155.7c-2,0.6-3.9,0.9-5.9,0.9c-4.2,0-7.1-1.3-8.6-3.8s-2-5.7-1.3-9.8l8.2-40.9h23.4l3.3-16.3h-23.3
				l3.9-19.8h-20.3l-3.9,19.8h-14.1l-3.3,16.3h14.1l-8.2,41c-1.2,6.2-0.9,11.5,0.9,16c1.8,4.5,4.7,8,8.8,10.4
				c4,2.5,8.9,3.7,14.5,3.7c3.6,0,7.2-0.4,10.9-1.2c3.7-0.8,7-2.1,10.1-4l-3.6-15C709.5,154.2,707.7,155.1,705.7,155.7z"/>
			<path class="st5" d="M798.7,89c-6.3-3.1-13.8-4.6-22.4-4.6c-10,0-18.9,2.2-26.5,6.6c-7.8,4.3-13.8,10.4-18.3,18.1
				c-4.4,7.6-6.7,16.4-6.7,26.1c0,7.7,1.8,14.4,5.2,20c3.5,5.7,8.4,10.2,14.7,13.3c6.3,3.2,13.7,4.8,22.2,4.8
				c10.1,0,18.9-2.2,26.7-6.7c7.8-4.4,13.8-10.6,18.3-18.3c4.4-7.7,6.7-16.4,6.7-26.1c0-7.8-1.8-14.5-5.2-20.2
				C810,96.5,805,92.1,798.7,89z M794.3,140.3c-2.6,4.8-6.1,8.7-10.6,11.4c-4.4,2.8-9.6,4.1-15.5,4.1c-7.3,0-12.9-1.9-16.9-5.7
				c-4-3.8-6-9.2-6-16c0-6.4,1.3-12,3.9-16.9c2.6-4.8,6.1-8.7,10.7-11.4s9.6-4.1,15.4-4.1c7.3,0,12.9,2,16.9,5.8c4,3.9,6,9.2,6,15.9
				C798.1,129.8,796.8,135.5,794.3,140.3z"/>
			<path class="st5" d="M508.1,195.4l-2.5,12.6c-2.7-4.2-6.2-7.5-10.8-9.7c-5.2-2.6-11.5-3.9-18.8-3.9c-7,0-13.5,1.3-19.4,3.8
				c-5.9,2.5-11.1,6-15.5,10.6s-7.9,10-10.4,16.1c-2.5,6.2-3.7,12.9-3.7,20.3c0,8,1.7,14.9,5.1,20.5c3.5,5.7,8,10.1,13.8,13.1
				c5.8,3.1,12.2,4.5,19.2,4.5c9.3,0,17.3-2.2,23.9-6.7c1.6-1,3-2.2,4.3-3.4l-1.8,8.9h19.3l17.3-86.9L508.1,195.4L508.1,195.4z
				 M485.9,261.8c-4.4,2.8-9.6,4.1-15.5,4.1c-7.3,0-12.9-2-16.9-5.8c-4-3.9-6-9.2-6-15.9c0-6.4,1.3-12,3.9-16.9
				c2.6-4.8,6.1-8.7,10.7-11.4c4.5-2.8,9.6-4.1,15.4-4.1c7.3,0,12.9,2,16.9,5.8c4,3.9,6,9.2,6,15.9c0,6.4-1.3,12-3.9,16.9
				C493.9,255.3,490.4,259,485.9,261.8z"/>
			<path class="st5" d="M593.6,236c-3.6-1.5-7.3-2.7-11.4-3.5s-7.9-1.6-11.4-2.5c-3.6-0.8-6.4-1.9-8.7-3.2c-2.3-1.3-3.5-3.2-3.5-5.5
				c0-3.1,1.6-5.5,4.8-7.6c3.2-2,8.1-3,14.7-3c4.2,0,8.6,0.5,13.1,1.5s8.7,2.7,12.6,5.2l7.5-15.6c-3.7-2.4-8.4-4.2-14-5.5
				c-5.6-1.3-11.4-2-17.3-2c-8.1,0-15.3,1.2-21.5,3.5c-6.2,2.4-11.1,5.6-14.5,10c-3.5,4.3-5.2,9.6-5.2,15.8c0,4.8,1.2,8.8,3.5,11.7
				s5.1,5.1,8.7,6.7c3.6,1.5,7.3,2.7,11.4,3.6c4,0.9,7.9,1.7,11.4,2.5c3.6,0.8,6.4,1.8,8.7,3c2.3,1.2,3.5,3,3.5,5.3
				c0,3.3-1.6,5.8-4.8,7.6c-3.2,1.9-8.2,2.8-14.9,2.8c-5.8,0-11.4-0.8-16.9-2.4c-5.3-1.6-9.9-3.7-13.4-6.1l-8.5,15.6
				c3.6,2.6,8.7,4.8,15.3,6.7s13.7,2.8,21.3,2.8c8.1,0,15.3-1.1,21.6-3.4c6.3-2.2,11.2-5.5,14.7-10c3.6-4.3,5.3-9.8,5.3-16
				c0-4.7-1.2-8.6-3.5-11.4C600,239.8,597.2,237.6,593.6,236z"/>
			<path class="st5" d="M647.5,213.8c3.2-2,8.1-3,14.7-3c4.2,0,8.6,0.5,13.1,1.5s8.7,2.7,12.6,5.2l7.5-15.6c-3.7-2.4-8.4-4.2-14-5.5
				c-5.6-1.3-11.4-2-17.3-2c-8.1,0-15.3,1.2-21.5,3.5c-6.2,2.4-11.1,5.6-14.5,10s-5.2,9.6-5.2,15.8c0,4.8,1.2,8.8,3.5,11.7
				s5.1,5.1,8.7,6.7c3.6,1.5,7.3,2.7,11.4,3.6c4,0.9,7.9,1.7,11.4,2.5c3.6,0.8,6.4,1.8,8.7,3c2.3,1.2,3.5,3,3.5,5.3
				c0,3.3-1.6,5.8-4.8,7.6c-3.2,1.9-8.2,2.8-14.9,2.8c-5.8,0-11.4-0.8-16.9-2.4c-5.3-1.6-9.9-3.7-13.4-6.1l-8.5,15.6
				c3.6,2.6,8.7,4.8,15.3,6.7c6.6,1.9,13.7,2.8,21.3,2.8c8.1,0,15.3-1.1,21.6-3.4c6.3-2.2,11.2-5.5,14.7-10c3.6-4.3,5.3-9.8,5.3-16
				c0-4.7-1.2-8.6-3.5-11.4c-2.3-2.9-5.1-5-8.7-6.6c-3.6-1.5-7.3-2.7-11.4-3.5s-7.9-1.6-11.4-2.5c-3.6-0.8-6.4-1.9-8.7-3.2
				c-2.3-1.3-3.5-3.2-3.5-5.5C642.7,218.4,644.3,215.9,647.5,213.8z"/>
			<path class="st5" d="M767.5,240.5c-1.6,8.5-4.9,14.7-9.9,18.9c-4.9,4.1-11.1,6.2-18.3,6.2c-7,0-11.9-2-14.5-5.9
				c-2.7-3.9-3.4-9.5-2.1-16.5l9.6-47.7h-20.3l-9.6,48.2c-1.8,8.6-1.5,15.8,0.7,21.7c2.2,5.9,5.8,10.4,11,13.5
				c5.1,3.1,11.4,4.6,18.7,4.6c7.1,0,13.8-1.5,20-4.3c3.5-1.6,6.5-3.7,9.3-6.2L759,284h19.3l18.4-88.4h-20.1L767.5,240.5z"/>
			<path class="st5" d="M846.3,199.9c-4,1.8-7.7,4.4-10.9,8.1l2.2-11.2h-19.2l-17.3,86.9h20.3L830,241c1.8-9.1,5.2-15.8,10.4-19.9
				c5.2-4.1,11.7-6.2,19.6-6.2c1,0,1.9,0,2.6,0.1c0.8,0.1,1.6,0.2,2.5,0.4l3.8-19.3C860,195.9,852.5,197.3,846.3,199.9z"/>
			<path class="st5" d="M952.4,212.1c-3.4-5.7-7.9-10.1-13.9-13.1c-5.9-3.1-13-4.5-21.1-4.5c-9.7,0-18.3,2.2-25.8,6.6
				c-7.5,4.3-13.4,10.4-17.8,18c-4.3,7.6-6.5,16.3-6.5,26.2c0,7.7,1.8,14.4,5.3,20c3.6,5.7,8.5,10.2,14.9,13.3
				c6.4,3.2,13.9,4.8,22.6,4.8c6.7,0,13.2-1,19.4-3s11.6-5,16.2-9l-8.5-14.1c-3,2.9-6.6,5-11.1,6.6s-9.1,2.4-14,2.4
				c-8.6,0-14.9-1.9-18.9-5.7c-3.9-3.7-5.9-8.9-6.1-15.6H956c0.4-1.9,0.8-3.8,1-6c0.2-2.2,0.3-4.2,0.3-6.3
				C957.3,224.6,955.6,217.8,952.4,212.1z M900.9,214.8c4.3-2.8,9.6-4.1,15.5-4.1c5,0,9.3,1,12.8,3c3.6,2,6.2,4.7,7.8,8.5
				c1.2,2.7,1.7,5.7,1.6,9.3h-49.7c0.5-1.7,1.1-3.3,1.9-4.8C893.1,221.5,896.4,217.6,900.9,214.8z"/>
		</g>
	</g>
</g>
</svg>
