<?xml version="1.0" encoding="utf-8"?>
<!-- Generator: Adobe Illustrator 23.0.0, SVG Export Plug-In . SVG Version: 6.00 Build 0)  -->
<svg version="1.1" id="Layer_1" xmlns="http://www.w3.org/2000/svg" xmlns:xlink="http://www.w3.org/1999/xlink" x="0px" y="0px"
	 width="32px" height="32px" viewBox="0 0 32 32" style="enable-background:new 0 0 32 32;" xml:space="preserve">
<style type="text/css">
	.st0{fill:#FFFFFF;}
	.st1{fill-rule:evenodd;clip-rule:evenodd;fill:#00263D;}
	.st2{fill-rule:evenodd;clip-rule:evenodd;fill:#76BE43;}
	.st3{fill-rule:evenodd;clip-rule:evenodd;fill:#FFFFFF;}
	.st4{fill:#04B084;}
	.st5{fill:#17BC8D;}
</style>
<path class="st0" d="M26.8,32H5.2C2.3,32,0,29.7,0,26.8V5.2C0,2.3,2.3,0,5.2,0h21.6C29.7,0,32,2.3,32,5.2v21.6
	C32,29.7,29.7,32,26.8,32z"/>
<g>
	<g>
		<path class="st1" d="M27.3,9.6c0,2-0.8,4.6-2.3,7.2c0,0.1-0.1,0.2-0.1,0.2l-0.8,0l0,0l-0.5,0c-0.2,0-0.3,0-0.4,0
			c-0.1,0-0.1,0-0.2,0c-0.6,0.1-1.2,0.4-1.6,0.9c-0.5,0.5-0.9,1.1-1.4,1.8c-0.2,0.3-0.5,0.6-0.7,0.9c0,0-0.1,0.1-0.1,0.1
			c0,0,0,0,0,0h-6.8c0.1-0.4,0.2-0.8,0.2-1.2c0-1.2-0.6-2.3-1.5-2.9c-0.2-0.2-0.5-0.3-0.8-0.4c-0.4-0.2-0.8-0.2-1.3-0.2
			c-2,0-3.6,1.6-3.6,3.6c0,0.4,0.1,0.9,0.2,1.2h-3c-0.8,0-0.6-0.3,0-1.1c0.1-0.7,0-1.3,0.1-1.9c0-0.5,0.1-0.9,0.4-1.3l0,0
			c0-0.1,0.1-0.1,0.1-0.2c0.1-0.1,0.2-0.2,0.3-0.3c0.2-0.1,0.4-0.3,0.6-0.4c1.2-0.6,2.6-1,4.3-1.4c1.3-0.3,2.3-0.4,3.1-0.6
			c0.4-0.1,0.8-0.2,1.1-0.3c0.8-0.2,1.6-0.6,2.8-1.2c0,0,0.1,0,0.1-0.1c0.2-0.1,0.5-0.2,0.8-0.4c0.1-0.1,0.3-0.1,0.6-0.3
			c0,0,0.1,0,0.1,0l0.1-0.1c2.7-1.3,4.4-1.7,6.6-1.7c0.7,0,2.5,0,3.6,0C27.3,9.5,27.3,9.5,27.3,9.6z"/>
		<path class="st2" d="M28.9,15.1c-0.1,0.2-0.2,0.5-0.3,0.7c-0.2,0.3-0.4,0.5-0.6,0.7c-0.3,0.2-0.6,0.3-0.9,0.4c-0.3,0.1-0.7,0-1,0
			h-1.1c0-0.1,0.1-0.2,0.1-0.2c1.5-2.6,2.3-5.2,2.3-7.2c0,0,0-0.1,0-0.1c0-1.3-0.4-2.4-1.3-2.9c-1.9-1.3-5.4,0.4-8.4,3.9l0,0
			l-0.6,0.7l-0.1,0.1c0,0-0.1,0-0.1,0c-0.4,0.2-0.5,0.2-0.6,0.3c-0.3,0.1-0.5,0.3-0.8,0.4c0,0-0.1,0-0.1,0.1l0.6-0.8l0,0
			C19.8,6,25.1,3.4,28,5.4c1.3,0.8,1.9,2.4,2,4.4C30,11.6,29.6,13.4,28.9,15.1z"/>
		<path class="st1" d="M12,19.4c0,0.4-0.1,0.9-0.3,1.2c-0.3,0.7-0.9,1.3-1.6,1.6l0,0c0,0,0,0-0.1,0c0,0,0,0-0.1,0c0,0,0,0,0,0
			c0,0,0,0,0,0c0,0,0,0,0,0s0,0,0,0c0,0,0,0,0,0h0c0,0,0,0,0,0c0,0,0,0-0.1,0c0,0,0,0,0,0c0,0,0,0,0,0c0,0,0,0,0,0s0,0,0,0
			c0,0,0,0,0,0s0,0,0,0c0,0,0,0,0,0c0,0,0,0-0.1,0c0,0,0,0-0.1,0c0,0,0,0,0,0c0,0,0,0,0,0c0,0,0,0,0,0c0,0,0,0,0,0c0,0,0,0,0,0
			c0,0,0,0,0,0c0,0,0,0,0,0l0,0c0,0,0,0,0,0c0,0,0,0,0,0s0,0,0,0c0,0,0,0,0,0h0c0,0,0,0,0,0c-0.1,0-0.1,0-0.2,0
			c-1.3,0-2.3-0.8-2.8-1.8c-0.2-0.4-0.3-0.8-0.3-1.2c0-1.7,1.4-3.1,3.1-3.1c0.4,0,0.8,0.1,1.1,0.2c0.3,0.1,0.5,0.2,0.8,0.4
			C11.6,17.6,12,18.4,12,19.4z"/>
		<path class="st3" d="M10.2,19.4c0,0.2,0,0.3-0.1,0.5c-0.1,0.3-0.3,0.5-0.6,0.6c-0.1,0.1-0.3,0.1-0.4,0.1c0,0,0,0-0.1,0
			c-0.5,0-0.9-0.3-1.1-0.7c-0.1-0.2-0.1-0.3-0.1-0.5c0-0.7,0.5-1.2,1.2-1.2c0.2,0,0.3,0,0.4,0.1c0.1,0,0.2,0.1,0.3,0.2
			C10,18.7,10.2,19,10.2,19.4z"/>
	</g>
	<path class="st4" d="M9.7,22.4C9.7,22.4,9.7,22.4,9.7,22.4C9.7,22.4,9.7,22.4,9.7,22.4C9.7,22.4,9.7,22.4,9.7,22.4z M9.7,22.4
		C9.8,22.4,9.8,22.4,9.7,22.4C9.8,22.4,9.8,22.4,9.7,22.4C9.8,22.4,9.8,22.4,9.7,22.4z"/>
	<path class="st5" d="M24.8,17c0,0.1,0,0.1-0.1,0.2c-0.2,0.4-0.4,0.8-0.6,1.1c-0.4,0.8-0.8,1.5-1.3,2.3c-0.5,0.8-1.1,1.5-1.7,2.2
		c-0.5,0.6-1.1,1.2-1.7,1.7c-0.6,0.5-1.1,0.9-1.8,1.4c-0.6,0.4-1.1,0.7-1.8,0.9c-0.5,0.2-1.1,0.4-1.7,0.5c-0.5,0.1-1.1,0.1-1.6,0
		c-0.5-0.1-1-0.2-1.4-0.5c-1.3-0.8-2-2.3-2.2-4.2c0,0,0,0,0,0h0l0,0h0c0,0,0,0,0,0c0,0,0,0,0,0c0,0,0,0,0,0c0,0,0,0,0,0l0,0
		c0,0,0,0,0,0c0,0,0,0,0,0c0,0,0,0,0,0c0,0,0,0,0,0c0,0,0,0,0,0c0,0,0,0,0,0c0,0,0,0,0,0c0,0,0,0,0.1,0s0,0,0.1,0c0,0,0,0,0.1,0
		c0,0,0,0,0,0c0,0,0,0,0.1,0c0,0,0,0,0,0c0,0,0,0,0,0c0,0,0,0,0.1,0c0,0,0,0,0,0h0c0,0,0,0,0,0c0,0,0,0,0,0c0,0,0,0,0,0s0,0,0,0
		c0,0,0,0,0,0c0,0,0,0,0,0c0,0,0,0,0,0c0,0,0,0,0,0c0,0,0,0,0,0c0,0,0,0,0,0l0,0c0.2,1,0.6,1.7,1.3,2.2c0,0,0,0,0,0
		c0.4,0.3,1,0.3,1.5,0.3c0.6,0,1.2-0.2,1.7-0.5c0.7-0.3,1.3-0.7,1.9-1.2c0.7-0.5,1.3-1.1,1.9-1.8c0.2-0.3,0.5-0.5,0.7-0.8
		c0.2-0.3,0.5-0.6,0.7-0.9c0.4-0.6,0.8-1.2,1.4-1.8c0.5-0.4,1-0.7,1.6-0.9c0.1,0,0.1,0,0.2,0c0.2,0,0.3,0,0.4,0l0.5,0l0,0L24.8,17z"
		/>
</g>
</svg>
