<?xml version="1.0" encoding="utf-8"?>
<!-- Generator: Adobe Illustrator 27.0.0, SVG Export Plug-In . SVG Version: 6.00 Build 0)  -->
<svg version="1.1" id="Layer_1" xmlns="http://www.w3.org/2000/svg" xmlns:xlink="http://www.w3.org/1999/xlink" x="0px" y="0px"
	 viewBox="0 0 1050 600" style="enable-background:new 0 0 1050 600;" xml:space="preserve">
<style type="text/css">
	.st0{fill-rule:evenodd;clip-rule:evenodd;fill:#00263D;}
	.st1{fill-rule:evenodd;clip-rule:evenodd;fill:#76BE43;}
	.st2{fill-rule:evenodd;clip-rule:evenodd;fill:#FFFFFF;}
	.st3{fill:#04B084;}
	.st4{fill:#17BC8D;}
	.st5{fill:#00263D;}
</style>
<g>
	<g>
		<g>
			<path class="st0" d="M428.4,216.5c0.2,30.1-12,69.5-35.1,108.9c-0.7,1.1-1.3,2.3-2,3.4l-11.5-0.1h0l-7-0.1
				c-2.3,0.1-4.6,0.2-6.8,0.5c-1,0.1-2,0.3-3,0.4c-9.5,1.7-18,6.5-25.1,13.1c-8.3,7.7-14.3,17.4-20.6,26.8c-3.3,4.9-6.9,9.5-10.6,14
				c-0.6,0.6-1.1,1.1-1.6,1.8c-0.1,0.2-0.3,0.3-0.4,0.5h-104c2.2-5.9,3.4-12.3,3.4-19c0-18.6-9.3-35-23.5-44.9
				c-3.6-2.5-7.5-4.6-11.6-6.2c-6.1-2.4-12.8-3.7-19.7-3.7c-30.2,0-54.8,24.5-54.8,54.8c0,6.7,1.2,13.1,3.4,19H51.5
				c-12.5,0-9.6-4.7,0.2-17.1c0.8-10.7,0.5-20.5,1.4-29.2c0.7-7.2,2.2-13.6,5.7-19.3c0,0,0,0,0,0c0.5-0.9,1.1-1.7,1.7-2.5
				c1.4-1.9,3.2-3.6,5.2-5.3c2.5-2,5.5-3.9,9.1-5.7c17.6-8.5,39.4-15.4,65.1-20.8c20.5-4.2,34.7-6.6,47-9.2c6-1.3,11.6-2.6,17.2-4.3
				c12.2-3.6,24.6-8.6,42.4-17.6c0.6-0.3,1.3-0.6,1.9-1c3.6-1.8,7.4-3.8,11.5-6c2.1-1.1,4.1-2.1,9.4-4.8c0.4-0.2,0.8-0.4,1.3-0.6
				l2.1-1c40.5-19.9,66.9-25.3,101.2-26.6c11.3-0.4,38.2-0.5,54.5-0.4C428.4,215.1,428.4,215.8,428.4,216.5z"/>
			<path class="st1" d="M452.7,300.8c-1.4,3.5-3,7.1-4.9,10.4c-2.4,4.2-5.5,8-9.4,11c-4.1,3.1-9,5.3-14,6.3
				c-5.2,1-10.5,0.4-15.8,0.4h-17.3c0.7-1.1,1.4-2.3,2-3.4c23.1-39.4,35.3-78.8,35.1-108.9c0-0.7,0-1.5,0-2.2
				c-0.5-20.1-6.8-35.8-19.2-44.2c-28.9-19.5-81.9,6.8-127.3,59.8l0,0l-9.2,11.3l-2.1,1c-0.4,0.2-0.8,0.4-1.3,0.6
				c-5.4,2.7-7.4,3.8-9.4,4.8c-4.1,2.2-7.9,4.1-11.5,6c-0.7,0.3-1.3,0.6-1.9,1l9.2-12.3l0,0c58.6-80.3,139.2-120.5,184.2-90.2
				c19.2,12.9,28.9,36.7,29.7,66.3C470.2,246.8,462.9,274.7,452.7,300.8z"/>
			<path class="st0" d="M196.2,366.7c0,6.8-1.4,13.2-4,19c-4.7,10.6-13.2,19.1-23.8,23.9h0c-0.3,0.1-0.6,0.3-1,0.4
				c-0.3,0.1-0.6,0.3-1,0.4c-0.1,0-0.2,0.1-0.2,0.1c-0.1,0-0.2,0.1-0.2,0.1c-0.2,0.1-0.3,0.1-0.5,0.2c-0.2,0.1-0.5,0.2-0.7,0.2
				c-0.2,0.1-0.4,0.2-0.7,0.2c0,0-0.1,0-0.1,0c-0.2,0.1-0.3,0.1-0.5,0.2c-0.3,0.1-0.6,0.2-0.9,0.3c-0.2,0.1-0.4,0.1-0.6,0.2
				c0,0,0,0-0.1,0c-0.1,0-0.3,0.1-0.4,0.1c-0.1,0-0.2,0.1-0.3,0.1c-0.2,0-0.3,0.1-0.5,0.1c-0.2,0-0.3,0.1-0.5,0.1
				c-0.2,0-0.3,0.1-0.5,0.1c-0.3,0.1-0.5,0.1-0.8,0.2c-0.3,0.1-0.7,0.1-1,0.2c-0.2,0-0.5,0.1-0.7,0.1c-0.1,0-0.2,0-0.4,0.1
				c-0.2,0-0.3,0-0.5,0.1c-0.2,0-0.4,0.1-0.6,0.1c-0.1,0-0.2,0-0.3,0c-0.2,0-0.3,0-0.5,0.1c-0.2,0-0.5,0.1-0.7,0.1c0,0,0,0,0,0
				c0,0,0,0-0.1,0c-0.2,0-0.3,0-0.5,0c-0.2,0-0.4,0-0.5,0c-0.2,0-0.4,0-0.6,0c0,0-0.1,0-0.1,0c-0.1,0-0.2,0-0.3,0
				c-0.9,0.1-1.8,0.1-2.7,0.1c-19.2,0-35.6-11.5-42.9-28c-2.6-5.8-4-12.2-4-19c0-25.9,21-46.9,46.9-46.9c6,0,11.7,1.1,17,3.2
				c4.2,1.6,8.1,3.8,11.6,6.5C189,338.1,196.2,351.6,196.2,366.7z"/>
			<path class="st2" d="M168,366.7c0,2.7-0.6,5.2-1.6,7.5c-1.9,4.2-5.2,7.6-9.4,9.5c-2,0.9-4.2,1.5-6.5,1.6c-0.4,0-0.7,0-1.1,0
				c-7.6,0-14.2-4.6-17.1-11.1c-1-2.3-1.6-4.9-1.6-7.5c0-10.3,8.3-18.6,18.6-18.6c2.4,0,4.7,0.4,6.8,1.3c1.7,0.6,3.2,1.5,4.6,2.6
				C165.1,355.3,168,360.7,168,366.7z"/>
		</g>
		<path class="st3" d="M159.8,412.5c0.2,0,0.3-0.1,0.5-0.1c0.2,0,0.3-0.1,0.5-0.1C160.4,412.3,160.1,412.4,159.8,412.5z
			 M161.2,412.1c0.1,0,0.2-0.1,0.3-0.1c0.2,0,0.3-0.1,0.4-0.1C161.7,412,161.5,412,161.2,412.1z"/>
		<path class="st4" d="M391.2,328.9c-0.3,0.8-0.7,1.6-1.1,2.4c-2.7,5.8-5.4,11.5-8.4,17.1c-6.1,11.8-12.9,23.2-20.4,34.3
			c-8,11.8-16.7,23.2-26.1,34c-8.1,9.3-16.8,18.1-26,26.3c-8.5,7.5-17.4,14.4-26.8,20.6c-8.5,5.5-17.4,10.4-26.7,14.3
			c-8.3,3.5-16.9,6.2-25.8,7.6c-7.9,1.3-16,1.5-23.9,0.3c-7.4-1.2-14.5-3.7-21-7.5c-19.8-11.9-30.8-35.1-33.1-64.6
			c0.1,0,0.2,0,0.3,0c0,0,0.1,0,0.1,0h0c0,0,0.1,0,0.1,0c0.2,0,0.3,0,0.5,0c0.2,0,0.4,0,0.5,0c0.2,0,0.4,0,0.5,0c0,0,0,0,0.1,0
			c0,0,0,0,0,0c0.2,0,0.5-0.1,0.7-0.1c0.2,0,0.4,0,0.5-0.1c0.1,0,0.2,0,0.3,0c0.2,0,0.4-0.1,0.6-0.1c0.2,0,0.3,0,0.5-0.1
			c0.1,0,0.2,0,0.4-0.1c0.2,0,0.5-0.1,0.7-0.1c0.3-0.1,0.7-0.1,1-0.2c0.3-0.1,0.5-0.1,0.8-0.2c0.3-0.1,0.6-0.1,0.9-0.2
			c0.2,0,0.3-0.1,0.5-0.1c0.3-0.1,0.5-0.1,0.8-0.2c0,0,0,0,0.1,0c0.2-0.1,0.4-0.1,0.6-0.2c0.3-0.1,0.6-0.2,0.9-0.3
			c0.2-0.1,0.3-0.1,0.5-0.2c0,0,0.1,0,0.1,0c0.2-0.1,0.4-0.1,0.7-0.2c0.1,0,0.1,0,0.2-0.1c0.2-0.1,0.3-0.1,0.5-0.2
			c0.2-0.1,0.3-0.1,0.5-0.2c0.1,0,0.2-0.1,0.2-0.1c0.1,0,0.2-0.1,0.2-0.1c0.2-0.1,0.3-0.1,0.5-0.2c0.2-0.1,0.3-0.1,0.5-0.2
			c0.2-0.1,0.3-0.1,0.5-0.2c0.2-0.1,0.3-0.1,0.5-0.2h0c2.9,15,9.6,26.5,20.2,32.8c0.2,0.1,0.3,0.2,0.5,0.3
			c6.7,3.9,14.6,5.3,22.3,4.9c9.2-0.5,18.1-3.3,26.5-7c10.3-4.6,19.8-10.8,28.8-17.7c10.5-8.1,20.2-17.3,29.2-27.1
			c3.8-4.1,7.4-8.2,10.9-12.3c3.7-4.5,7.3-9.1,10.6-14c6.3-9.3,12.3-19,20.6-26.8c7.1-6.6,15.5-11.4,25.1-13.1c1-0.2,2-0.3,3-0.4
			c2.3-0.3,4.5-0.4,6.8-0.5l7,0.1h0L391.2,328.9z"/>
	</g>
	<g>
		<g>
			<path class="st5" d="M509.1,287.6H567l6.2,26.7h21.3L565.8,199h-21.3l-75,115.3h22.9L509.1,287.6z M551.4,220l11.7,50.8h-43.5
				L551.4,220z"/>
			<path class="st5" d="M616.8,312.2c5.2,3.1,11.5,4.7,18.9,4.7c7.2,0,14-1.5,20.3-4.4c3.5-1.6,6.6-3.7,9.4-6.3l-1.9,9.6h19.6
				l17.5-88h-20.4l-9.2,45.6c-1.6,8.6-5,14.9-10,19.1c-5,4.2-11.2,6.3-18.5,6.3c-7.1,0-12.1-2-14.7-6c-2.7-4-3.4-9.6-2.1-16.7
				l9.7-48.3h-20.6l-9.7,48.8c-1.8,8.7-1.5,16,0.7,22C607.8,304.5,611.5,309,616.8,312.2z"/>
			<path class="st5" d="M751.9,297.6c-2,0.6-4,0.9-6,0.9c-4.3,0-7.2-1.3-8.7-3.8c-1.5-2.5-2-5.8-1.3-9.9l8.3-41.4h23.7l3.3-16.5
				h-23.6l4-20.1h-20.6l-4,20.1h-14.3l-3.3,16.5h14.3l-8.3,41.5c-1.2,6.3-0.9,11.7,0.9,16.2c1.8,4.6,4.8,8.1,8.9,10.5
				c4.1,2.5,9,3.7,14.7,3.7c3.6,0,7.3-0.4,11-1.2c3.7-0.8,7.1-2.1,10.2-4.1l-3.6-15.2C755.7,296.1,753.9,297,751.9,297.6z"/>
			<path class="st5" d="M846.1,230c-6.4-3.1-14-4.7-22.7-4.7c-10.1,0-19.1,2.2-26.9,6.7c-7.9,4.4-14,10.5-18.5,18.3
				c-4.5,7.7-6.8,16.6-6.8,26.4c0,7.8,1.8,14.6,5.3,20.3c3.5,5.8,8.5,10.3,14.9,13.5c6.4,3.2,13.9,4.9,22.5,4.9
				c10.2,0,19.2-2.2,27.1-6.8c7.9-4.5,14-10.7,18.5-18.5c4.5-7.8,6.8-16.6,6.8-26.4c0-7.9-1.8-14.7-5.3-20.5
				C857.5,237.6,852.5,233.1,846.1,230z M841.6,282c-2.6,4.9-6.2,8.8-10.7,11.6c-4.5,2.8-9.7,4.2-15.7,4.2c-7.4,0-13.1-1.9-17.1-5.8
				c-4.1-3.9-6.1-9.3-6.1-16.2c0-6.5,1.3-12.2,4-17.1c2.6-4.9,6.2-8.8,10.8-11.6c4.6-2.8,9.7-4.2,15.6-4.2c7.4,0,13.1,2,17.1,5.9
				c4.1,4,6.1,9.3,6.1,16.1C845.5,271.3,844.2,277.1,841.6,282z"/>
			<path class="st5" d="M551.6,337.8l-2.5,12.8c-2.7-4.3-6.3-7.6-10.9-9.8c-5.3-2.6-11.7-4-19-4c-7.1,0-13.7,1.3-19.7,3.8
				c-6,2.5-11.2,6.1-15.7,10.7c-4.5,4.6-8,10.1-10.5,16.3c-2.5,6.3-3.7,13.1-3.7,20.6c0,8.1,1.7,15.1,5.2,20.8
				c3.5,5.8,8.1,10.2,14,13.3c5.9,3.1,12.4,4.6,19.5,4.6c9.4,0,17.5-2.2,24.2-6.8c1.6-1,3-2.2,4.4-3.4l-1.8,9h19.6l17.5-88H551.6z
				 M529.2,405.1c-4.5,2.8-9.7,4.2-15.7,4.2c-7.4,0-13.1-2-17.1-5.9c-4.1-4-6.1-9.3-6.1-16.1c0-6.5,1.3-12.2,4-17.1
				c2.6-4.9,6.2-8.8,10.8-11.6c4.6-2.8,9.7-4.2,15.6-4.2c7.4,0,13.1,2,17.1,5.9c4.1,4,6.1,9.3,6.1,16.1c0,6.5-1.3,12.2-4,17.1
				C537.3,398.5,533.7,402.3,529.2,405.1z"/>
			<path class="st5" d="M638.3,379c-3.6-1.5-7.4-2.7-11.5-3.5c-4.1-0.8-8-1.6-11.5-2.5c-3.6-0.8-6.5-1.9-8.8-3.2
				c-2.3-1.3-3.5-3.2-3.5-5.6c0-3.1,1.6-5.6,4.9-7.7c3.2-2,8.2-3,14.9-3c4.3,0,8.7,0.5,13.3,1.5c4.6,1,8.8,2.7,12.8,5.3l7.6-15.8
				c-3.7-2.4-8.5-4.3-14.2-5.6c-5.7-1.3-11.5-2-17.5-2c-8.2,0-15.5,1.2-21.8,3.5c-6.3,2.4-11.2,5.7-14.7,10.1
				c-3.5,4.4-5.3,9.7-5.3,16c0,4.9,1.2,8.9,3.5,11.9c2.3,3,5.2,5.2,8.8,6.8c3.6,1.5,7.4,2.7,11.5,3.6c4.1,0.9,8,1.7,11.5,2.5
				c3.6,0.8,6.5,1.8,8.8,3c2.3,1.2,3.5,3,3.5,5.4c0,3.3-1.6,5.9-4.9,7.7c-3.2,1.9-8.3,2.8-15.1,2.8c-5.9,0-11.6-0.8-17.1-2.4
				c-5.4-1.6-10-3.7-13.6-6.2l-8.6,15.8c3.6,2.6,8.8,4.9,15.5,6.8c6.7,1.9,13.9,2.8,21.6,2.8c8.2,0,15.5-1.1,21.9-3.4
				c6.4-2.2,11.3-5.6,14.9-10.1c3.6-4.4,5.4-9.9,5.4-16.2c0-4.8-1.2-8.7-3.5-11.6C644.8,382.8,641.9,380.6,638.3,379z"/>
			<path class="st5" d="M692.9,356.5c3.2-2,8.2-3,14.9-3c4.3,0,8.7,0.5,13.3,1.5c4.6,1,8.8,2.7,12.8,5.3l7.6-15.8
				c-3.7-2.4-8.5-4.3-14.2-5.6c-5.7-1.3-11.5-2-17.5-2c-8.2,0-15.5,1.2-21.8,3.5c-6.3,2.4-11.2,5.7-14.7,10.1
				c-3.5,4.4-5.3,9.7-5.3,16c0,4.9,1.2,8.9,3.5,11.9c2.3,3,5.2,5.2,8.8,6.8c3.6,1.5,7.4,2.7,11.5,3.6c4.1,0.9,8,1.7,11.5,2.5
				c3.6,0.8,6.5,1.8,8.8,3c2.3,1.2,3.5,3,3.5,5.4c0,3.3-1.6,5.9-4.9,7.7c-3.2,1.9-8.3,2.8-15.1,2.8c-5.9,0-11.6-0.8-17.1-2.4
				c-5.4-1.6-10-3.7-13.6-6.2l-8.6,15.8c3.6,2.6,8.8,4.9,15.5,6.8c6.7,1.9,13.9,2.8,21.6,2.8c8.2,0,15.5-1.1,21.9-3.4
				c6.4-2.2,11.3-5.6,14.9-10.1c3.6-4.4,5.4-9.9,5.4-16.2c0-4.8-1.2-8.7-3.5-11.6c-2.3-2.9-5.2-5.1-8.8-6.7
				c-3.6-1.5-7.4-2.7-11.5-3.5c-4.1-0.8-8-1.6-11.5-2.5c-3.6-0.8-6.5-1.9-8.8-3.2c-2.3-1.3-3.5-3.2-3.5-5.6
				C688,361.1,689.6,358.6,692.9,356.5z"/>
			<path class="st5" d="M814.5,383.5c-1.6,8.6-5,14.9-10,19.1c-5,4.2-11.2,6.3-18.5,6.3c-7.1,0-12.1-2-14.7-6
				c-2.7-4-3.4-9.6-2.1-16.7l9.7-48.3h-20.6l-9.7,48.8c-1.8,8.7-1.5,16,0.7,22c2.2,6,5.9,10.5,11.1,13.7c5.2,3.1,11.5,4.7,18.9,4.7
				c7.2,0,14-1.5,20.3-4.4c3.5-1.6,6.6-3.7,9.4-6.3l-3.1,11.2h19.6l18.6-89.6h-20.4L814.5,383.5z"/>
			<path class="st5" d="M894.3,342.4c-4.1,1.8-7.8,4.5-11,8.2l2.2-11.3H866l-17.5,88h20.6l8.7-43.3c1.8-9.2,5.3-16,10.5-20.2
				c5.3-4.2,11.9-6.3,19.9-6.3c1,0,1.9,0,2.6,0.1c0.8,0.1,1.6,0.2,2.5,0.4l3.8-19.6C908.2,338.3,900.6,339.7,894.3,342.4z"/>
			<path class="st5" d="M1001.8,354.7c-3.4-5.8-8-10.2-14.1-13.3c-6-3.1-13.2-4.6-21.4-4.6c-9.8,0-18.5,2.2-26.1,6.7
				c-7.6,4.4-13.6,10.5-18,18.2c-4.4,7.7-6.6,16.5-6.6,26.5c0,7.8,1.8,14.6,5.4,20.3c3.6,5.8,8.6,10.3,15.1,13.5
				c6.5,3.2,14.1,4.9,22.9,4.9c6.8,0,13.4-1,19.7-3c6.3-2,11.8-5.1,16.4-9.1l-8.6-14.3c-3,2.9-6.7,5.1-11.2,6.7
				c-4.5,1.6-9.2,2.4-14.2,2.4c-8.7,0-15.1-1.9-19.2-5.8c-4-3.7-6-9-6.2-15.8h69.8c0.4-1.9,0.8-3.9,1-6.1c0.2-2.2,0.3-4.3,0.3-6.4
				C1006.8,367.4,1005.1,360.5,1001.8,354.7z M949.6,357.5c4.4-2.8,9.7-4.2,15.7-4.2c5.1,0,9.4,1,13,3c3.6,2,6.3,4.8,7.9,8.6
				c1.2,2.7,1.7,5.8,1.6,9.4h-50.4c0.5-1.7,1.1-3.3,1.9-4.9C941.7,364.3,945.1,360.3,949.6,357.5z"/>
		</g>
	</g>
</g>
</svg>
