<svg id="Layer_1" data-name="Layer 1" xmlns="http://www.w3.org/2000/svg" xmlns:xlink="http://www.w3.org/1999/xlink" viewBox="0 0 200 200"><defs><style>.cls-1{fill:url(#linear-gradient);}.cls-2{fill:url(#linear-gradient-2);}.cls-3{fill:#fff;}</style><linearGradient id="linear-gradient" x1="41.5" y1="100" x2="158.5" y2="100" gradientUnits="userSpaceOnUse"><stop offset="0" stop-color="#0f2040"/><stop offset="1" stop-color="#263b63"/></linearGradient><linearGradient id="linear-gradient-2" x1="60.08" y1="56.22" x2="141.18" y2="56.22" gradientUnits="userSpaceOnUse"><stop offset="0" stop-color="#00b8c3"/><stop offset="1" stop-color="#00999f"/></linearGradient></defs><title>icon svg</title><path class="cls-1" d="M146.89,177.41H53.15c-.08-.06-.15-.16-.24-.18-6.64-1.16-11.43-6.88-11.41-14.7.09-41.67,0-83.34.06-125A18,18,0,0,1,42,33.18c1.66-6.64,6.83-10.59,13.78-10.59q44.28,0,88.58,0c.45,0,.91,0,1.36,0a13.47,13.47,0,0,1,11.1,7,15.47,15.47,0,0,1,1.73,8q0,51.93,0,103.85c0,7.1,0,14.21,0,21.31,0,4.83-1.52,9-5.52,11.79C151.18,175.88,148.93,176.5,146.89,177.41ZM100.48,66.75h36.13c3.23,0,4.56-1.34,4.56-4.6q0-6,0-11.94c0-3.16-1.31-4.47-4.51-4.5-2.62,0-5.24,0-7.86,0H65c-3.77,0-4.93,1.18-4.93,5s0,7.56,0,11.34c0,3.46,1.27,4.73,4.73,4.73Zm15.67,90.55h2.56c5.8,0,11.59,0,17.38,0,3.41,0,5.07-1.74,5.08-5.14,0-.91,0-1.82,0-2.72v-2c0-3.65-1.68-5.34-5.37-5.34q-19.56,0-39.13,0c-.3,0-.61,0-.91,0A4.57,4.57,0,0,0,91.25,147c0,1.56,0,3.12,0,4.68,0,4,1.62,5.61,5.57,5.61ZM99.93,98.84c1.41,0,2.82,0,4.23,0a4.47,4.47,0,0,0,4.62-4.56c.06-2,.07-4,0-6a4.51,4.51,0,0,0-4.51-4.55q-4.23-.14-8.46,0a4.52,4.52,0,0,0-4.54,4.53c-.07,2.06-.08,4.13,0,6.19a4.42,4.42,0,0,0,4.58,4.42C97.21,98.87,98.57,98.84,99.93,98.84Zm-32.32,0c1.31,0,2.62,0,3.93,0,2.81,0,4.6-1.59,4.78-4.36a46.85,46.85,0,0,0,0-6.49,4.37,4.37,0,0,0-4.42-4.29c-2.87-.1-5.74-.11-8.61,0a4.43,4.43,0,0,0-4.4,4.62c0,2,0,3.93,0,5.89a4.42,4.42,0,0,0,4.66,4.63C64.89,98.86,66.25,98.84,67.61,98.84Zm64.8,0c1.46,0,2.92,0,4.38,0a4.37,4.37,0,0,0,4.37-4.45c0-2,0-4,0-6a4.39,4.39,0,0,0-4.23-4.62c-3-.14-5.94-.12-8.91,0a4.19,4.19,0,0,0-4.22,4,45,45,0,0,0,.07,7.52A4.05,4.05,0,0,0,128,98.82C129.49,98.87,131,98.83,132.41,98.83ZM67.75,113c-1.46,0-2.92,0-4.38,0a4.41,4.41,0,0,0-4.5,4.49c0,2,0,4,0,6a4.44,4.44,0,0,0,4.41,4.61c2.87.09,5.74.08,8.61,0a4.21,4.21,0,0,0,4.32-3.86,45,45,0,0,0,0-7.52A4.14,4.14,0,0,0,71.83,113C70.47,112.93,69.11,113,67.75,113Zm32.32,0c-1.41,0-2.82,0-4.23,0a4.42,4.42,0,0,0-4.57,4.44c-.09,2.06-.08,4.13,0,6.19a4.52,4.52,0,0,0,4.55,4.52q4.23.1,8.46,0a4.48,4.48,0,0,0,4.49-4.4q.15-3.17,0-6.35a4.42,4.42,0,0,0-4.61-4.39C102.79,112.93,101.43,113,100.07,113Zm32.43,0h0c-1.31,0-2.62,0-3.92,0-3,0-4.75,1.67-4.89,4.59a55.31,55.31,0,0,0,0,6,4.47,4.47,0,0,0,4.53,4.52q4.23.12,8.46,0a4.44,4.44,0,0,0,4.47-4.55c0-2.06.05-4.13,0-6.19a4.36,4.36,0,0,0-4.43-4.39C135.32,112.92,133.91,113,132.5,113ZM67.59,157.25v0c1.36,0,2.72,0,4.08,0,2.75-.11,4.47-1.63,4.65-4.34a50.19,50.19,0,0,0,0-6.49c-.17-2.43-1.63-4.07-4-4.19a86.29,86.29,0,0,0-9.65,0,4.16,4.16,0,0,0-3.82,4.3c-.05,2.07,0,4.13,0,6.2a4.31,4.31,0,0,0,4.19,4.45C64.56,157.33,66.08,157.25,67.59,157.25Z"/><path class="cls-2" d="M100.48,66.75H64.81c-3.46,0-4.73-1.27-4.73-4.73,0-3.78,0-7.56,0-11.34s1.16-5,4.93-5H128.8c2.62,0,5.24,0,7.86,0,3.2,0,4.51,1.34,4.51,4.5q0,6,0,11.94c0,3.26-1.33,4.6-4.56,4.6Z"/><path class="cls-3" d="M116.15,157.3H96.81c-4,0-5.56-1.64-5.57-5.61,0-1.56,0-3.12,0-4.68a4.57,4.57,0,0,1,4.51-4.86c.3,0,.61,0,.91,0q19.56,0,39.13,0c3.69,0,5.36,1.69,5.37,5.34v2c0,.9,0,1.81,0,2.72,0,3.4-1.67,5.12-5.08,5.14-5.79,0-11.58,0-17.38,0Z"/><path class="cls-3" d="M99.93,98.84c-1.36,0-2.72,0-4.08,0a4.42,4.42,0,0,1-4.58-4.42c-.09-2.06-.08-4.13,0-6.19a4.52,4.52,0,0,1,4.54-4.53q4.23-.14,8.46,0a4.51,4.51,0,0,1,4.51,4.55c.08,2,.07,4,0,6a4.47,4.47,0,0,1-4.62,4.56C102.75,98.87,101.34,98.84,99.93,98.84Z"/><path class="cls-3" d="M67.61,98.84c-1.36,0-2.72,0-4.08,0a4.42,4.42,0,0,1-4.66-4.63c0-2,0-3.93,0-5.89a4.43,4.43,0,0,1,4.4-4.62c2.87-.11,5.74-.1,8.61,0A4.37,4.37,0,0,1,76.3,88a46.85,46.85,0,0,1,0,6.49c-.18,2.77-2,4.32-4.78,4.36C70.23,98.86,68.92,98.84,67.61,98.84Z"/><path class="cls-3" d="M132.41,98.83c-1.46,0-2.92,0-4.38,0a4.05,4.05,0,0,1-4.16-3.62,45,45,0,0,1-.07-7.52,4.19,4.19,0,0,1,4.22-4c3-.11,5.94-.13,8.91,0a4.39,4.39,0,0,1,4.23,4.62c0,2,0,4,0,6a4.37,4.37,0,0,1-4.37,4.45C135.33,98.87,133.87,98.83,132.41,98.83Z"/><path class="cls-3" d="M67.75,113c1.36,0,2.72,0,4.08,0a4.14,4.14,0,0,1,4.36,3.76,45,45,0,0,1,0,7.52,4.21,4.21,0,0,1-4.32,3.86c-2.87.08-5.74.09-8.61,0a4.44,4.44,0,0,1-4.41-4.61c0-2,0-4,0-6a4.41,4.41,0,0,1,4.5-4.49C64.83,112.93,66.29,113,67.75,113Z"/><path class="cls-3" d="M100.07,113c1.36,0,2.72,0,4.08,0a4.42,4.42,0,0,1,4.61,4.39q.15,3.18,0,6.35a4.48,4.48,0,0,1-4.49,4.4q-4.23.12-8.46,0a4.52,4.52,0,0,1-4.55-4.52c-.07-2.06-.08-4.13,0-6.19A4.42,4.42,0,0,1,95.84,113C97.25,112.93,98.66,113,100.07,113Z"/><path class="cls-3" d="M132.5,113c1.41,0,2.82,0,4.23,0a4.36,4.36,0,0,1,4.43,4.39c.05,2.06,0,4.13,0,6.19a4.44,4.44,0,0,1-4.47,4.55q-4.23.12-8.46,0a4.47,4.47,0,0,1-4.53-4.52,55.31,55.31,0,0,1,0-6c.14-2.92,1.93-4.55,4.89-4.59,1.3,0,2.61,0,3.92,0Z"/><path class="cls-3" d="M67.59,157.25c-1.51,0-3,.08-4.53,0a4.31,4.31,0,0,1-4.19-4.45c0-2.07,0-4.13,0-6.2a4.16,4.16,0,0,1,3.82-4.3,86.29,86.29,0,0,1,9.65,0c2.33.12,3.79,1.76,4,4.19a50.19,50.19,0,0,1,0,6.49c-.18,2.71-1.9,4.23-4.65,4.34-1.36.05-2.72,0-4.08,0Z"/></svg>