<svg id="Layer_1" data-name="Layer 1" xmlns="http://www.w3.org/2000/svg" xmlns:xlink="http://www.w3.org/1999/xlink" viewBox="0 0 200 200"><defs><style>.cls-1{fill:url(#linear-gradient);}.cls-2{fill:url(#linear-gradient-2);}.cls-3{fill:url(#linear-gradient-3);}.cls-4{fill:url(#linear-gradient-4);}.cls-5{fill:url(#linear-gradient-5);}.cls-6{fill:url(#linear-gradient-6);}.cls-7{fill:url(#linear-gradient-7);}.cls-8{fill:url(#linear-gradient-8);}</style><linearGradient id="linear-gradient" x1="29.65" y1="68.18" x2="181.47" y2="68.18" gradientUnits="userSpaceOnUse"><stop offset="0" stop-color="#0f2040"/><stop offset="1" stop-color="#263b63"/></linearGradient><linearGradient id="linear-gradient-2" x1="18.53" y1="131.85" x2="170.04" y2="131.85" xlink:href="#linear-gradient"/><linearGradient id="linear-gradient-3" x1="75.44" y1="115.73" x2="124.46" y2="115.73" gradientUnits="userSpaceOnUse"><stop offset="0" stop-color="#00b8c3"/><stop offset="1" stop-color="#00999f"/></linearGradient><linearGradient id="linear-gradient-4" x1="83.57" y1="80.01" x2="116.51" y2="80.01" xlink:href="#linear-gradient"/><linearGradient id="linear-gradient-5" x1="47.89" y1="111.24" x2="77.54" y2="111.24" xlink:href="#linear-gradient-3"/><linearGradient id="linear-gradient-6" x1="122.58" y1="111.39" x2="152.04" y2="111.39" xlink:href="#linear-gradient-3"/><linearGradient id="linear-gradient-7" x1="53.78" y1="86.94" x2="77.8" y2="86.94" xlink:href="#linear-gradient"/><linearGradient id="linear-gradient-8" x1="122.22" y1="86.94" x2="146.27" y2="86.94" xlink:href="#linear-gradient"/></defs><title>icon svg</title><path class="cls-1" d="M98.8,23.14c18,.14,32.85,4.74,46,14.28A74.36,74.36,0,0,1,175.14,85.2c.61,3.21.93,6.48,1.3,9.74.13,1.1.63,1.49,1.64,1.37,3.58-.43,4.39.19,2.12,3.89-2.38,3.88-4.58,7.88-6.86,11.83-.92,1.58-1.79,1.57-2.71,0q-3.8-6.57-7.56-13.14c-1.11-1.94-.76-2.53,1.53-2.54H166c1.1,0,1.46-.67,1.38-1.64a66.26,66.26,0,0,0-8-27.1c-9.4-16.95-23.49-28-42.17-33.17a63.35,63.35,0,0,0-21.83-1.94A67.21,67.21,0,0,0,35.94,81c-.13.42-.21.86-.36,1.27-.43,1.16-1.49,1.38-2.11.32-1.57-2.66-3.62-5.18-3.8-8.41a10.11,10.11,0,0,1,.74-4.53c10.75-23.93,28.85-39,54.48-44.81A44.05,44.05,0,0,1,90,23.88C93.46,23.52,97,23.29,98.8,23.14Z"/><path class="cls-2" d="M101.66,176.86C82,176.64,66,171.29,52.17,160.2A75.08,75.08,0,0,1,25,115.74c-.73-3.47-1-7-1.39-10.56-.12-1.13-.47-1.63-1.63-1.52-4.33.38-4-.82-2.15-3.87Q23.39,94,26.65,87.94c.75-1.39,1.94-1.52,2.78,0,2.45,4.48,5.07,8.87,7.62,13.31,1,1.75.61,2.39-1.43,2.41-.5,0-1,0-1.51,0-1.06,0-1.45.51-1.37,1.58a66.8,66.8,0,0,0,44.06,58.5,67.34,67.34,0,0,0,65.59-11.44,65.65,65.65,0,0,0,21.55-32.69,16.68,16.68,0,0,1,1.46-2.81,22.08,22.08,0,0,1,2.1,2.34c3.4,4.9,3.2,9.9.5,15.07-11.36,21.74-28.82,35.59-52.86,40.95a30.31,30.31,0,0,1-3.1.61C108,176.23,103.85,176.63,101.66,176.86Z"/><path class="cls-3" d="M112.51,100.07a11.47,11.47,0,0,1,11.95,11.49c0,4.29-.37,8.57-.67,12.84a10.59,10.59,0,0,1-.82,2.52,4.52,4.52,0,0,1-4.13,3.33c-4,.38-8,1.14-12,1.15-7.47,0-14.95-.33-22.42-.6a12.2,12.2,0,0,1-4.08-.77,5,5,0,0,1-2.72-2.12,21.3,21.3,0,0,1-2-6.64,63.72,63.72,0,0,1,0-11c.5-5.67,4.34-8.43,9.47-9.86,1.66-.46,2.58-.4,3.61,1.43,1.65,2.93,4,5.46,6,8.21,1,1.38,1.85,2.87,2.78,4.32H98a55.17,55.17,0,0,0,.56-8.29c-.09-1.36-1.51-2.62-2.29-4a8.57,8.57,0,0,1-.53-1.33,4.74,4.74,0,0,1,1.34-.46q2.94-.08,5.87,0a2,2,0,0,1,1.29.53c.14.14-.18.8-.4,1.16-.32.52-.73,1-1.1,1.47-1.26,1.64-2,3.35-1.44,5.54.48,1.73.65,3.55,1,5.3Z"/><path class="cls-4" d="M83.58,80a16.47,16.47,0,1,1,17.17,16.61A16.23,16.23,0,0,1,83.58,80Z"/><path class="cls-5" d="M77.54,100.52c-5.37,4.34-5.4,10.27-5.25,16.25,0,1.94.17,3.88.26,5.9-4.87,0-9.6.09-14.33,0-2.15-.06-4.29-.61-6.44-.81a3.14,3.14,0,0,1-2.72-2.32c-1.25-3-1.11-6.1-1.17-9.2a18.69,18.69,0,0,1,.27-3.66c.71-4,3.72-5.63,7.26-6.64a4.9,4.9,0,0,1,4.22.65,11.21,11.21,0,0,0,11.91.19A6.33,6.33,0,0,1,77.54,100.52Z"/><path class="cls-6" d="M127.58,123.09c0-4.37,0-8.21,0-12a13.05,13.05,0,0,0-4.5-10,5,5,0,0,1-.48-.56c2-.65,3.63-1,5.66.25,4.26,2.56,8.7,2.18,12.93-.43a2.51,2.51,0,0,1,1.48-.56c4.78.77,9.58,2.36,9.38,9.29a90.82,90.82,0,0,1-.76,9.61,3.81,3.81,0,0,1-3.84,3.47C140.87,122.44,134.31,122.75,127.58,123.09Z"/><path class="cls-7" d="M65.74,99c-6.95,0-12-5.23-12-12.37a12,12,0,0,1,24,.58A11.77,11.77,0,0,1,65.74,99Z"/><path class="cls-8" d="M134.15,99a11.81,11.81,0,0,1-11.93-12.27,12,12,0,1,1,24.05.71A11.87,11.87,0,0,1,134.15,99Z"/></svg>